<?xml version="1.0" encoding="UTF-8" standalone="no"?>
<!-- Created with Inkscape (http://www.inkscape.org/) -->

<svg
   width="31.265896mm"
   height="5.6546535mm"
   viewBox="0 0 31.265896 5.6546535"
   version="1.1"
   id="svg1"
   xml:space="preserve"
   xmlns="http://www.w3.org/2000/svg"
   xmlns:svg="http://www.w3.org/2000/svg"><defs
     id="defs1" /><g
     id="layer1"
     style="fill:currentColor;stroke:none;stroke-width:1.5"
     transform="translate(-58.391679,-79.525602)"><path
       d="m 66.024956,84.280677 q -0.433917,0 -0.703792,-0.291042 -0.264583,-0.291042 -0.264583,-0.788459 v -0.851958 q 0,-0.502709 0.264583,-0.793751 0.264584,-0.291042 0.703792,-0.291042 0.328084,0 0.53975,0.164042 0.211667,0.164042 0.248709,0.4445 h 0.01587 l -0.01058,-0.661458 v -0.846668 h 0.47625 v 3.862919 h -0.47625 v -0.555625 h -0.0053 q -0.03704,0.28575 -0.248709,0.449792 -0.211666,0.15875 -0.53975,0.15875 z m 0.15875,-0.41275 q 0.296334,0 0.465667,-0.185209 0.169334,-0.185208 0.169334,-0.513292 v -0.79375 q 0,-0.328084 -0.169334,-0.513292 -0.169333,-0.185209 -0.465667,-0.185209 -0.301625,0 -0.47625,0.179917 -0.174625,0.179917 -0.174625,0.518584 v 0.79375 q 0,0.338667 0.174625,0.518584 0.174625,0.179917 0.47625,0.179917 z m 3.185588,0.41275 q -0.343959,0 -0.603251,-0.137583 -0.254,-0.137584 -0.396875,-0.386292 -0.137583,-0.254 -0.137583,-0.587376 v -0.79375 q 0,-0.338667 0.137583,-0.587375 0.142875,-0.248709 0.396875,-0.386292 0.259292,-0.137584 0.603251,-0.137584 0.343958,0 0.597958,0.137584 0.259292,0.137583 0.396876,0.386292 0.142875,0.248708 0.142875,0.587375 v 0.513292 h -1.809751 v 0.280458 q 0,0.343959 0.174625,0.529167 0.174625,0.179917 0.497417,0.179917 0.275166,0 0.4445,-0.09525 0.169333,-0.100542 0.206375,-0.296333 h 0.47625 q -0.04762,0.365125 -0.359833,0.582083 -0.306917,0.211667 -0.767292,0.211667 z m -0.672042,-1.751543 h 1.344084 v -0.153458 q 0,-0.343959 -0.174625,-0.529167 -0.169334,-0.185209 -0.497417,-0.185209 -0.322792,0 -0.497417,0.185209 -0.174625,0.185208 -0.174625,0.529167 z m 4.016379,1.751543 q -0.328083,0 -0.53975,-0.15875 -0.211667,-0.164042 -0.248709,-0.449792 h -0.0053 V 84.22776 H 71.44363 v -3.862919 h 0.476251 v 0.846668 l -0.01058,0.661458 h 0.01588 q 0.03704,-0.280458 0.248709,-0.4445 0.211667,-0.164042 0.53975,-0.164042 0.439209,0 0.703792,0.291042 0.264584,0.291042 0.264584,0.793751 v 0.851958 q 0,0.497417 -0.264584,0.788459 -0.264583,0.291042 -0.703792,0.291042 z m -0.15875,-0.41275 q 0.301625,0 0.47625,-0.179917 0.174625,-0.179917 0.174625,-0.518584 v -0.79375 q 0,-0.338667 -0.174625,-0.518584 -0.174625,-0.179917 -0.47625,-0.179917 -0.291042,0 -0.465667,0.185209 -0.169333,0.185208 -0.169333,0.513292 v 0.79375 q 0,0.328084 0.169333,0.513292 0.174625,0.185209 0.465667,0.185209 z m 3.159129,0.41275 q -0.502709,0 -0.804334,-0.296333 -0.301625,-0.301626 -0.301625,-0.814918 v -1.852084 h 0.47625 v 1.852084 q 0,0.328084 0.169334,0.513292 0.169333,0.179917 0.460375,0.179917 0.296333,0 0.465667,-0.179917 0.174625,-0.185208 0.174625,-0.513292 v -1.852084 h 0.47625 v 1.852084 q 0,0.513292 -0.306917,0.814918 -0.306916,0.296333 -0.809625,0.296333 z m 2.444754,0.899584 v -0.433917 h 0.926042 q 0.428625,0 0.428625,-0.41275 v -0.370417 l 0.01058,-0.529167 h -0.01058 q -0.02646,0.280458 -0.238125,0.4445 -0.206375,0.164042 -0.534459,0.164042 -0.449792,0 -0.709084,-0.291042 -0.259291,-0.296333 -0.259291,-0.79375 v -0.613834 q 0,-0.497417 0.259291,-0.788459 0.259292,-0.291042 0.709084,-0.291042 0.328084,0 0.534459,0.164042 0.211667,0.164042 0.238125,0.4445 h 0.0053 v -0.555625 h 0.470958 v 3.016252 q 0,0.391583 -0.243417,0.619125 -0.238125,0.227542 -0.66675,0.227542 z m 0.724958,-1.550459 q 0.296334,0 0.465667,-0.185209 0.169334,-0.185208 0.169334,-0.513292 v -0.555625 q 0,-0.328084 -0.169334,-0.513292 -0.169333,-0.185209 -0.465667,-0.185209 -0.301625,0 -0.470958,0.179917 -0.164042,0.179917 -0.164042,0.518584 v 0.555625 q 0,0.338667 0.164042,0.518584 0.169333,0.179917 0.470958,0.179917 z m 3.354921,0.650875 q -0.328083,0 -0.53975,-0.15875 -0.211667,-0.164042 -0.248709,-0.449792 h -0.0053 v 0.555625 h -0.476251 v -3.862919 h 0.476251 v 0.846668 l -0.01058,0.661458 h 0.01587 q 0.03704,-0.280458 0.248709,-0.4445 0.211667,-0.164042 0.53975,-0.164042 0.439209,0 0.703792,0.291042 0.264584,0.291042 0.264584,0.793751 v 0.851958 q 0,0.497417 -0.264584,0.788459 -0.264583,0.291042 -0.703792,0.291042 z m -0.15875,-0.41275 q 0.301625,0 0.47625,-0.179917 0.174625,-0.179917 0.174625,-0.518584 v -0.79375 q 0,-0.338667 -0.174625,-0.518584 -0.174625,-0.179917 -0.47625,-0.179917 -0.291042,0 -0.465667,0.185209 -0.169333,0.185208 -0.169333,0.513292 v 0.79375 q 0,0.328084 0.169333,0.513292 0.174625,0.185209 0.465667,0.185209 z m 2.91042,0.41275 q -0.460375,0 -0.724958,-0.232833 -0.264584,-0.238126 -0.264584,-0.640293 0,-0.407458 0.264584,-0.640292 0.264583,-0.232833 0.714375,-0.232833 h 0.899584 v -0.291042 q 0,-0.264583 -0.164042,-0.41275 -0.15875,-0.148167 -0.4445,-0.148167 -0.254,0 -0.428625,0.111125 -0.174625,0.111125 -0.216959,0.291042 h -0.47625 q 0.02646,-0.243417 0.174625,-0.428625 0.153458,-0.185209 0.396875,-0.28575 0.248709,-0.105834 0.550334,-0.105834 0.502709,0 0.79375,0.259292 0.291042,0.259292 0.291042,0.703792 v 2.000251 h -0.465667 v -0.555625 h -0.0053 q -0.03175,0.280458 -0.275167,0.4445 -0.238125,0.164042 -0.619126,0.164042 z m 0.116417,-0.375709 q 0.338667,0 0.555626,-0.169333 0.216958,-0.169333 0.216958,-0.433917 v -0.41275 h -0.889001 q -0.238125,0 -0.375708,0.132292 -0.137584,0.132291 -0.137584,0.359833 0,0.243417 0.164042,0.386292 0.169334,0.137583 0.465667,0.137583 z m 2.30188,0.322792 v -2.910418 h 0.47625 v 0.555625 h 0.0053 q 0.03704,-0.291042 0.238125,-0.449792 0.201083,-0.15875 0.534458,-0.15875 0.455084,0 0.724959,0.291042 0.269875,0.28575 0.269875,0.777876 v 0.201083 h -0.47625 v -0.15875 q 0,-0.333375 -0.169333,-0.513292 -0.169334,-0.185209 -0.492126,-0.185209 -0.635,0 -0.635,0.698501 v 1.852084 z"
       id="text1"
       style="font-size:5.29167px;font-family:'JetBrains Mono';-inkscape-font-specification:'JetBrains Mono';stroke-width:0.264583"
       aria-label="debugbar" /><g
       style="fill:none;stroke:currentColor;stroke-width:1.5"
       id="g3"
       transform="matrix(0.26458333,0,0,0.26458333,57.399491,79.128727)"><path
         stroke-linecap="round"
         stroke-linejoin="round"
         d="M 19.5,14.25 V 11.625 A 3.375,3.375 0 0 0 16.125,8.25 h -1.5 A 1.125,1.125 0 0 1 13.5,7.125 v -1.5 A 3.375,3.375 0 0 0 10.125,2.25 H 8.25 m 6.75,12 H 9 m 1.5,-12 H 5.625 C 5.004,2.25 4.5,2.754 4.5,3.375 v 17.25 c 0,0.621 0.504,1.125 1.125,1.125 h 12.75 c 0.621,0 1.125,-0.504 1.125,-1.125 V 11.25 a 9,9 0 0 0 -9,-9 z"
         id="path1" /></g></g></svg>
